# MagicaVoxel @ Ephtracy

# group
o 

# material
mtllib Hero-8.mtl
usemtl palette

# normals
vn -1 0 0
vn 1 0 0
vn 0 0 1
vn 0 0 -1
vn 0 -1 0
vn 0 1 0

# texcoords
vt 0.955078 0.5
vt 0.966797 0.5

# verts
v 1.6 4.1 0.9
v 1.6 4.1 0.7
v 1.6 4.3 0.7
v 1.6 4.3 0.6
v 1.6 4.5 0.9
v 1.6 4.5 0.6
v 1.7 3.9 0.9
v 1.7 3.9 0.3
v 1.7 4 0.3
v 1.7 4 0.2
v 1.7 4.1 0.9
v 1.7 4.1 0.7
v 1.7 4.3 0.7
v 1.7 4.3 0.6
v 1.7 4.5 0.9
v 1.7 4.5 0.6
v 1.7 4.5 0.3
v 1.7 4.5 0.2
v 1.7 4.6 0.9
v 1.7 4.6 0.3
v 2.2 3.9 0.9
v 2.2 3.9 0.3
v 2.2 4 0.9
v 2.2 4 0.3
v 2.2 4 0.2
v 2.2 4.5 0.9
v 2.2 4.5 0.3
v 2.2 4.5 0.2
v 2.2 4.6 0.9
v 2.2 4.6 0.3
v 2.3 4 0.9
v 2.3 4 0.3
v 2.3 4.5 0.9
v 2.3 4.5 0.3
v 1.6 4.1 0.9
v 1.6 4.5 0.9
v 1.7 3.9 0.9
v 1.7 4.1 0.9
v 1.7 4.2 0.9
v 1.7 4.3 0.9
v 1.7 4.5 0.9
v 1.7 4.6 0.9
v 1.8 4.1 0.9
v 1.8 4.2 0.9
v 1.8 4.3 0.9
v 1.9 4 0.9
v 1.9 4.1 0.9
v 1.9 4.2 0.9
v 1.9 4.3 0.9
v 1.9 4.4 0.9
v 2 4.1 0.9
v 2 4.2 0.9
v 2.1 4 0.9
v 2.1 4.2 0.9
v 2.1 4.3 0.9
v 2.2 3.9 0.9
v 2.2 4 0.9
v 2.2 4.2 0.9
v 2.2 4.4 0.9
v 2.2 4.5 0.9
v 2.2 4.6 0.9
v 2.3 4 0.9
v 2.3 4.5 0.9
v 1.6 4.1 0.7
v 1.6 4.3 0.7
v 1.7 4.1 0.7
v 1.7 4.3 0.7
v 1.6 4.3 0.6
v 1.6 4.5 0.6
v 1.7 4.3 0.6
v 1.7 4.5 0.6
v 1.7 3.9 0.3
v 1.7 4 0.3
v 1.7 4.5 0.3
v 1.7 4.6 0.3
v 2.2 3.9 0.3
v 2.2 4 0.3
v 2.2 4.5 0.3
v 2.2 4.6 0.3
v 2.3 4 0.3
v 2.3 4.5 0.3
v 1.7 4 0.2
v 1.7 4.5 0.2
v 1.8 4.3 0.2
v 1.8 4.4 0.2
v 1.9 4.1 0.2
v 1.9 4.2 0.2
v 2 4.2 0.2
v 2 4.3 0.2
v 2.1 4.1 0.2
v 2.1 4.4 0.2
v 2.2 4 0.2
v 2.2 4.5 0.2
v 1.7 3.9 0.9
v 2.2 3.9 0.9
v 1.7 3.9 0.3
v 2.2 3.9 0.3
v 2.2 4 0.9
v 2.3 4 0.9
v 1.7 4 0.3
v 2.2 4 0.3
v 2.3 4 0.3
v 1.7 4 0.2
v 2.2 4 0.2
v 1.6 4.1 0.9
v 1.7 4.1 0.9
v 1.6 4.1 0.7
v 1.7 4.1 0.7
v 1.6 4.3 0.7
v 1.7 4.3 0.7
v 1.6 4.3 0.6
v 1.7 4.3 0.6
v 1.6 4.5 0.9
v 1.7 4.5 0.9
v 2.2 4.5 0.9
v 2.3 4.5 0.9
v 1.6 4.5 0.6
v 1.7 4.5 0.6
v 1.7 4.5 0.3
v 2.2 4.5 0.3
v 2.3 4.5 0.3
v 1.7 4.5 0.2
v 2.2 4.5 0.2
v 1.7 4.6 0.9
v 2.2 4.6 0.9
v 1.7 4.6 0.3
v 2.2 4.6 0.3

# faces
f 3/1/1 2/1/1 1/1/1
f 5/1/1 3/1/1 1/1/1
f 5/1/1 4/1/1 3/1/1
f 6/1/1 4/1/1 5/1/1
f 9/1/1 8/1/1 7/1/1
f 11/1/1 9/1/1 7/1/1
f 11/1/1 10/1/1 9/1/1
f 12/1/1 10/1/1 11/1/1
f 13/1/1 10/1/1 12/1/1
f 14/1/1 10/1/1 13/1/1
f 16/1/1 10/1/1 14/1/1
f 17/1/1 10/1/1 16/1/1
f 18/1/1 10/1/1 17/1/1
f 19/1/1 16/1/1 15/1/1
f 19/1/1 17/1/1 16/1/1
f 20/1/1 17/1/1 19/1/1
f 21/1/2 22/1/2 23/1/2
f 23/1/2 22/1/2 24/1/2
f 24/1/2 25/1/2 27/1/2
f 27/1/2 25/1/2 28/1/2
f 26/1/2 27/1/2 29/1/2
f 29/1/2 27/1/2 30/1/2
f 31/1/2 32/1/2 33/1/2
f 33/1/2 32/1/2 34/1/2
f 38/1/3 36/1/3 35/1/3
f 39/1/3 36/1/3 38/1/3
f 40/1/3 36/1/3 39/1/3
f 41/1/3 36/1/3 40/1/3
f 43/1/3 38/1/3 37/1/3
f 43/1/3 39/1/3 38/1/3
f 44/2/3 40/2/3 39/2/3
f 44/1/3 39/1/3 43/1/3
f 45/1/3 42/1/3 41/1/3
f 45/2/3 40/2/3 44/2/3
f 45/1/3 41/1/3 40/1/3
f 46/1/3 43/1/3 37/1/3
f 47/2/3 44/2/3 43/2/3
f 47/1/3 43/1/3 46/1/3
f 48/1/3 45/1/3 44/1/3
f 48/2/3 44/2/3 47/2/3
f 49/1/3 42/1/3 45/1/3
f 49/1/3 45/1/3 48/1/3
f 50/1/3 42/1/3 49/1/3
f 51/1/3 48/1/3 47/1/3
f 51/2/3 47/2/3 46/2/3
f 51/1/3 49/1/3 48/1/3
f 52/1/3 49/1/3 51/1/3
f 53/1/3 46/1/3 37/1/3
f 53/2/3 51/2/3 46/2/3
f 53/2/3 52/2/3 51/2/3
f 54/1/3 49/1/3 52/1/3
f 54/2/3 52/2/3 53/2/3
f 55/2/3 50/2/3 49/2/3
f 55/1/3 49/1/3 54/1/3
f 56/1/3 53/1/3 37/1/3
f 56/1/3 54/1/3 53/1/3
f 57/1/3 54/1/3 56/1/3
f 58/2/3 55/2/3 54/2/3
f 58/1/3 54/1/3 57/1/3
f 59/2/3 50/2/3 55/2/3
f 59/2/3 55/2/3 58/2/3
f 59/1/3 42/1/3 50/1/3
f 60/1/3 42/1/3 59/1/3
f 61/1/3 42/1/3 60/1/3
f 62/1/3 58/1/3 57/1/3
f 62/1/3 60/1/3 59/1/3
f 62/1/3 59/1/3 58/1/3
f 63/1/3 60/1/3 62/1/3
f 64/1/4 65/1/4 66/1/4
f 66/1/4 65/1/4 67/1/4
f 68/1/4 69/1/4 70/1/4
f 70/1/4 69/1/4 71/1/4
f 72/1/4 73/1/4 76/1/4
f 76/1/4 73/1/4 77/1/4
f 74/1/4 75/1/4 78/1/4
f 78/1/4 75/1/4 79/1/4
f 77/1/4 78/1/4 80/1/4
f 80/1/4 78/1/4 81/1/4
f 82/1/4 83/1/4 84/1/4
f 84/1/4 83/1/4 85/1/4
f 82/1/4 84/1/4 86/1/4
f 86/1/4 84/1/4 87/1/4
f 86/2/4 87/2/4 88/2/4
f 87/1/4 84/1/4 88/1/4
f 84/2/4 85/2/4 89/2/4
f 88/1/4 84/1/4 89/1/4
f 86/2/4 88/2/4 90/2/4
f 82/1/4 86/1/4 90/1/4
f 88/2/4 89/2/4 90/2/4
f 85/1/4 83/1/4 91/1/4
f 90/2/4 89/2/4 91/2/4
f 89/2/4 85/2/4 91/2/4
f 82/1/4 90/1/4 92/1/4
f 90/1/4 91/1/4 92/1/4
f 91/1/4 83/1/4 93/1/4
f 92/1/4 91/1/4 93/1/4
f 96/1/5 95/1/5 94/1/5
f 97/1/5 95/1/5 96/1/5
f 101/1/5 99/1/5 98/1/5
f 102/1/5 99/1/5 101/1/5
f 103/1/5 101/1/5 100/1/5
f 104/1/5 101/1/5 103/1/5
f 107/1/5 106/1/5 105/1/5
f 108/1/5 106/1/5 107/1/5
f 111/1/5 110/1/5 109/1/5
f 112/1/5 110/1/5 111/1/5
f 113/1/6 114/1/6 117/1/6
f 117/1/6 114/1/6 118/1/6
f 115/1/6 116/1/6 120/1/6
f 120/1/6 116/1/6 121/1/6
f 119/1/6 120/1/6 122/1/6
f 122/1/6 120/1/6 123/1/6
f 124/1/6 125/1/6 126/1/6
f 126/1/6 125/1/6 127/1/6
