# MagicaVoxel @ Ephtracy

# group
o 

# material
mtllib Arrow.mtl
usemtl palette

# normals
vn -1 0 0
vn 1 0 0
vn 0 0 1
vn 0 0 -1
vn 0 -1 0
vn 0 1 0

# texcoords
vt 0.876953 0.5
vt 0.908203 0.5
vt 0.939453 0.5
vt 0.943359 0.5

# verts
v -4.1 1.7 0.1
v -4.1 1.7 -0.1
v -4.1 1.9 0.1
v -4.1 1.9 -0.1
v -3.9 1.6 0.1
v -3.9 1.6 -0.1
v -3.9 1.7 0.2
v -3.9 1.7 0.1
v -3.9 1.7 -0.1
v -3.9 1.7 -0.2
v -3.9 1.9 0.2
v -3.9 1.9 0.1
v -3.9 1.9 -0.1
v -3.9 1.9 -0.2
v -3.9 2 0.1
v -3.9 2 -0.1
v -3.8 1.7 0.3
v -3.8 1.7 0.2
v -3.8 1.7 -0.2
v -3.8 1.7 -0.3
v -3.8 1.9 0.3
v -3.8 1.9 0.2
v -3.8 1.9 -0.2
v -3.8 1.9 -0.3
v -3.7 1.7 0.4
v -3.7 1.7 0.3
v -3.7 1.7 -0.3
v -3.7 1.7 -0.4
v -3.7 1.9 0.4
v -3.7 1.9 0.3
v -3.7 1.9 -0.3
v -3.7 1.9 -0.4
v 4.3 1.5 0.1
v 4.3 1.5 0
v 4.3 1.6 0.1
v 4.3 1.6 0
v 4.3 1.7 -0.2
v 4.3 1.7 -0.3
v 4.3 1.8 0.3
v 4.3 1.8 0.2
v 4.3 1.8 -0.2
v 4.3 1.8 -0.3
v 4.3 1.9 0.3
v 4.3 1.9 0.2
v 4.3 2 0
v 4.3 2 -0.1
v 4.3 2.1 0
v 4.3 2.1 -0.1
v 4.4 1.4 0.1
v 4.4 1.4 0
v 4.4 1.5 0.1
v 4.4 1.5 0
v 4.4 1.7 -0.3
v 4.4 1.7 -0.4
v 4.4 1.8 0.4
v 4.4 1.8 0.3
v 4.4 1.8 -0.3
v 4.4 1.8 -0.4
v 4.4 1.9 0.4
v 4.4 1.9 0.3
v 4.4 2.1 0
v 4.4 2.1 -0.1
v 4.4 2.2 0
v 4.4 2.2 -0.1
v 4.5 1.3 0.1
v 4.5 1.3 0
v 4.5 1.4 0.1
v 4.5 1.4 0
v 4.5 1.7 -0.4
v 4.5 1.7 -0.5
v 4.5 1.8 0.5
v 4.5 1.8 0.4
v 4.5 1.8 -0.4
v 4.5 1.8 -0.5
v 4.5 1.9 0.5
v 4.5 1.9 0.4
v 4.5 2.2 0
v 4.5 2.2 -0.1
v 4.5 2.3 0
v 4.5 2.3 -0.1
v 4.6 1.2 0.1
v 4.6 1.2 0
v 4.6 1.3 0.1
v 4.6 1.3 0
v 4.6 1.7 -0.5
v 4.6 1.7 -0.6
v 4.6 1.8 0.6
v 4.6 1.8 0.5
v 4.6 1.8 -0.5
v 4.6 1.8 -0.6
v 4.6 1.9 0.6
v 4.6 1.9 0.5
v 4.6 2.3 0
v 4.6 2.3 -0.1
v 4.6 2.4 0
v 4.6 2.4 -0.1
v -3.5 1.7 0.3
v -3.5 1.7 0.2
v -3.5 1.7 -0.2
v -3.5 1.7 -0.3
v -3.5 1.9 0.3
v -3.5 1.9 0.2
v -3.5 1.9 -0.2
v -3.5 1.9 -0.3
v -3.4 1.7 0.4
v -3.4 1.7 0.3
v -3.4 1.7 -0.3
v -3.4 1.7 -0.4
v -3.4 1.9 0.4
v -3.4 1.9 0.3
v -3.4 1.9 -0.3
v -3.4 1.9 -0.4
v 4.9 1.5 0.1
v 4.9 1.5 0
v 4.9 1.6 0.1
v 4.9 1.6 0
v 4.9 1.6 -0.1
v 4.9 1.7 0.2
v 4.9 1.7 0.1
v 4.9 1.7 -0.1
v 4.9 1.7 -0.2
v 4.9 1.7 -0.3
v 4.9 1.8 0.3
v 4.9 1.8 0.2
v 4.9 1.8 -0.2
v 4.9 1.8 -0.3
v 4.9 1.9 0.3
v 4.9 1.9 0.2
v 4.9 1.9 0.1
v 4.9 1.9 -0.1
v 4.9 1.9 -0.2
v 4.9 2 0.1
v 4.9 2 0
v 4.9 2 -0.1
v 4.9 2.1 0
v 4.9 2.1 -0.1
v 5 1.4 0.1
v 5 1.4 0
v 5 1.5 0.1
v 5 1.5 0
v 5 1.7 -0.3
v 5 1.7 -0.4
v 5 1.8 0.4
v 5 1.8 0.3
v 5 1.8 -0.3
v 5 1.8 -0.4
v 5 1.9 0.4
v 5 1.9 0.3
v 5 2.1 0
v 5 2.1 -0.1
v 5 2.2 0
v 5 2.2 -0.1
v 5.1 1.3 0.1
v 5.1 1.3 0
v 5.1 1.4 0.1
v 5.1 1.4 0
v 5.1 1.7 -0.4
v 5.1 1.7 -0.5
v 5.1 1.8 0.5
v 5.1 1.8 0.4
v 5.1 1.8 -0.4
v 5.1 1.8 -0.5
v 5.1 1.9 0.5
v 5.1 1.9 0.4
v 5.1 2.2 0
v 5.1 2.2 -0.1
v 5.1 2.3 0
v 5.1 2.3 -0.1
v 5.2 1.2 0.1
v 5.2 1.2 0
v 5.2 1.3 0.1
v 5.2 1.3 0
v 5.2 1.7 -0.5
v 5.2 1.7 -0.6
v 5.2 1.8 0.6
v 5.2 1.8 0.5
v 5.2 1.8 -0.5
v 5.2 1.8 -0.6
v 5.2 1.9 0.6
v 5.2 1.9 0.5
v 5.2 2.3 0
v 5.2 2.3 -0.1
v 5.2 2.4 0
v 5.2 2.4 -0.1
v 4.6 1.8 0.6
v 4.6 1.9 0.6
v 5.2 1.8 0.6
v 5.2 1.9 0.6
v 4.5 1.8 0.5
v 4.5 1.9 0.5
v 4.6 1.8 0.5
v 4.6 1.9 0.5
v -3.7 1.7 0.4
v -3.7 1.9 0.4
v -3.4 1.7 0.4
v -3.4 1.9 0.4
v 4.4 1.8 0.4
v 4.4 1.9 0.4
v 4.5 1.8 0.4
v 4.5 1.9 0.4
v -3.8 1.7 0.3
v -3.8 1.9 0.3
v -3.7 1.7 0.3
v -3.7 1.9 0.3
v 4.3 1.8 0.3
v 4.3 1.9 0.3
v 4.4 1.8 0.3
v 4.4 1.9 0.3
v -3.9 1.7 0.2
v -3.9 1.9 0.2
v -3.8 1.7 0.2
v -3.8 1.9 0.2
v -3.5 1.7 0.2
v -3.5 1.9 0.2
v 4.3 1.8 0.2
v 4.3 1.9 0.2
v 4.9 1.7 0.2
v 4.9 1.8 0.2
v -4.1 1.7 0.1
v -4.1 1.9 0.1
v -3.9 1.6 0.1
v -3.9 1.7 0.1
v -3.9 1.9 0.1
v -3.9 2 0.1
v -3.5 1.6 0.1
v -3.5 1.7 0.1
v -3.5 1.9 0.1
v -3.5 2 0.1
v 4.3 1.5 0.1
v 4.3 1.6 0.1
v 4.4 1.4 0.1
v 4.4 1.5 0.1
v 4.5 1.3 0.1
v 4.5 1.4 0.1
v 4.6 1.2 0.1
v 4.6 1.3 0.1
v 4.9 1.5 0.1
v 4.9 1.6 0.1
v 4.9 1.7 0.1
v 4.9 1.9 0.1
v 4.9 2 0.1
v 5 1.4 0.1
v 5 1.5 0.1
v 5.1 1.3 0.1
v 5.1 1.4 0.1
v 5.2 1.2 0.1
v 5.2 1.3 0.1
v 4.3 2 0
v 4.3 2.1 0
v 4.4 2.1 0
v 4.4 2.2 0
v 4.5 2.2 0
v 4.5 2.3 0
v 4.6 2.3 0
v 4.6 2.4 0
v 4.9 2 0
v 4.9 2.1 0
v 5 2.1 0
v 5 2.2 0
v 5.1 2.2 0
v 5.1 2.3 0
v 5.2 2.3 0
v 5.2 2.4 0
v -3.5 1.7 -0.3
v -3.5 1.9 -0.3
v -3.4 1.7 -0.3
v -3.4 1.9 -0.3
v 4.9 1.7 -0.3
v 4.9 1.8 -0.3
v 5 1.7 -0.3
v 5 1.8 -0.3
v 5 1.7 -0.4
v 5 1.8 -0.4
v 5.1 1.7 -0.4
v 5.1 1.8 -0.4
v 5.1 1.7 -0.5
v 5.1 1.8 -0.5
v 5.2 1.7 -0.5
v 5.2 1.8 -0.5
v 5.1 1.8 0.5
v 5.1 1.9 0.5
v 5.2 1.8 0.5
v 5.2 1.9 0.5
v 5 1.8 0.4
v 5 1.9 0.4
v 5.1 1.8 0.4
v 5.1 1.9 0.4
v -3.5 1.7 0.3
v -3.5 1.9 0.3
v -3.4 1.7 0.3
v -3.4 1.9 0.3
v 4.9 1.8 0.3
v 4.9 1.9 0.3
v 5 1.8 0.3
v 5 1.9 0.3
v 4.3 1.5 0
v 4.3 1.6 0
v 4.4 1.4 0
v 4.4 1.5 0
v 4.5 1.3 0
v 4.5 1.4 0
v 4.6 1.2 0
v 4.6 1.3 0
v 4.9 1.5 0
v 4.9 1.6 0
v 5 1.4 0
v 5 1.5 0
v 5.1 1.3 0
v 5.1 1.4 0
v 5.2 1.2 0
v 5.2 1.3 0
v -4.1 1.7 -0.1
v -4.1 1.9 -0.1
v -3.9 1.6 -0.1
v -3.9 1.7 -0.1
v -3.9 1.9 -0.1
v -3.9 2 -0.1
v -3.5 1.6 -0.1
v -3.5 1.7 -0.1
v -3.5 1.9 -0.1
v -3.5 2 -0.1
v 4.3 2 -0.1
v 4.3 2.1 -0.1
v 4.4 2.1 -0.1
v 4.4 2.2 -0.1
v 4.5 2.2 -0.1
v 4.5 2.3 -0.1
v 4.6 2.3 -0.1
v 4.6 2.4 -0.1
v 4.9 1.6 -0.1
v 4.9 1.7 -0.1
v 4.9 1.9 -0.1
v 4.9 2 -0.1
v 4.9 2.1 -0.1
v 5 2.1 -0.1
v 5 2.2 -0.1
v 5.1 2.2 -0.1
v 5.1 2.3 -0.1
v 5.2 2.3 -0.1
v 5.2 2.4 -0.1
v -3.9 1.7 -0.2
v -3.9 1.9 -0.2
v -3.8 1.7 -0.2
v -3.8 1.9 -0.2
v -3.5 1.7 -0.2
v -3.5 1.9 -0.2
v 4.3 1.7 -0.2
v 4.3 1.8 -0.2
v 4.9 1.8 -0.2
v 4.9 1.9 -0.2
v -3.8 1.7 -0.3
v -3.8 1.9 -0.3
v -3.7 1.7 -0.3
v -3.7 1.9 -0.3
v 4.3 1.7 -0.3
v 4.3 1.8 -0.3
v 4.4 1.7 -0.3
v 4.4 1.8 -0.3
v -3.7 1.7 -0.4
v -3.7 1.9 -0.4
v -3.4 1.7 -0.4
v -3.4 1.9 -0.4
v 4.4 1.7 -0.4
v 4.4 1.8 -0.4
v 4.5 1.7 -0.4
v 4.5 1.8 -0.4
v 4.5 1.7 -0.5
v 4.5 1.8 -0.5
v 4.6 1.7 -0.5
v 4.6 1.8 -0.5
v 4.6 1.7 -0.6
v 4.6 1.8 -0.6
v 5.2 1.7 -0.6
v 5.2 1.8 -0.6
v 4.6 1.2 0.1
v 5.2 1.2 0.1
v 4.6 1.2 0
v 5.2 1.2 0
v 4.5 1.3 0.1
v 4.6 1.3 0.1
v 4.5 1.3 0
v 4.6 1.3 0
v 4.4 1.4 0.1
v 4.5 1.4 0.1
v 4.4 1.4 0
v 4.5 1.4 0
v 4.3 1.5 0.1
v 4.4 1.5 0.1
v 4.3 1.5 0
v 4.4 1.5 0
v -3.9 1.6 0.1
v -3.5 1.6 0.1
v 4.3 1.6 0.1
v 4.3 1.6 0
v 4.9 1.6 0
v -3.9 1.6 -0.1
v -3.5 1.6 -0.1
v 4.9 1.6 -0.1
v -3.7 1.7 0.4
v -3.4 1.7 0.4
v -3.8 1.7 0.3
v -3.7 1.7 0.3
v -3.5 1.7 0.3
v -3.4 1.7 0.3
v -3.9 1.7 0.2
v -3.8 1.7 0.2
v -3.5 1.7 0.2
v 4.9 1.7 0.2
v -4.1 1.7 0.1
v -3.9 1.7 0.1
v -3.5 1.7 0.1
v 4.9 1.7 0.1
v -4.1 1.7 -0.1
v -3.9 1.7 -0.1
v -3.5 1.7 -0.1
v 4.9 1.7 -0.1
v -3.9 1.7 -0.2
v -3.8 1.7 -0.2
v -3.5 1.7 -0.2
v 4.3 1.7 -0.2
v 4.9 1.7 -0.2
v -3.8 1.7 -0.3
v -3.7 1.7 -0.3
v -3.5 1.7 -0.3
v -3.4 1.7 -0.3
v 4.3 1.7 -0.3
v 4.4 1.7 -0.3
v 4.9 1.7 -0.3
v 5 1.7 -0.3
v -3.7 1.7 -0.4
v -3.4 1.7 -0.4
v 4.4 1.7 -0.4
v 4.5 1.7 -0.4
v 5 1.7 -0.4
v 5.1 1.7 -0.4
v 4.5 1.7 -0.5
v 4.6 1.7 -0.5
v 5.1 1.7 -0.5
v 5.2 1.7 -0.5
v 4.6 1.7 -0.6
v 5.2 1.7 -0.6
v 4.6 1.8 0.6
v 5.2 1.8 0.6
v 4.5 1.8 0.5
v 4.6 1.8 0.5
v 5.1 1.8 0.5
v 5.2 1.8 0.5
v 4.4 1.8 0.4
v 4.5 1.8 0.4
v 5 1.8 0.4
v 5.1 1.8 0.4
v 4.3 1.8 0.3
v 4.4 1.8 0.3
v 4.9 1.8 0.3
v 5 1.8 0.3
v 4.3 1.8 0.2
v 4.9 1.8 0.2
v 4.9 2.1 0
v 5 2.1 0
v 4.9 2.1 -0.1
v 5 2.1 -0.1
v 5 2.2 0
v 5.1 2.2 0
v 5 2.2 -0.1
v 5.1 2.2 -0.1
v 5.1 2.3 0
v 5.2 2.3 0
v 5.1 2.3 -0.1
v 5.2 2.3 -0.1
v 5.1 1.3 0.1
v 5.2 1.3 0.1
v 5.1 1.3 0
v 5.2 1.3 0
v 5 1.4 0.1
v 5.1 1.4 0.1
v 5 1.4 0
v 5.1 1.4 0
v 4.9 1.5 0.1
v 5 1.5 0.1
v 4.9 1.5 0
v 5 1.5 0
v 4.3 1.8 -0.2
v 4.9 1.8 -0.2
v 4.3 1.8 -0.3
v 4.4 1.8 -0.3
v 4.9 1.8 -0.3
v 5 1.8 -0.3
v 4.4 1.8 -0.4
v 4.5 1.8 -0.4
v 5 1.8 -0.4
v 5.1 1.8 -0.4
v 4.5 1.8 -0.5
v 4.6 1.8 -0.5
v 5.1 1.8 -0.5
v 5.2 1.8 -0.5
v 4.6 1.8 -0.6
v 5.2 1.8 -0.6
v 4.6 1.9 0.6
v 5.2 1.9 0.6
v 4.5 1.9 0.5
v 4.6 1.9 0.5
v 5.1 1.9 0.5
v 5.2 1.9 0.5
v -3.7 1.9 0.4
v -3.4 1.9 0.4
v 4.4 1.9 0.4
v 4.5 1.9 0.4
v 5 1.9 0.4
v 5.1 1.9 0.4
v -3.8 1.9 0.3
v -3.7 1.9 0.3
v -3.5 1.9 0.3
v -3.4 1.9 0.3
v 4.3 1.9 0.3
v 4.4 1.9 0.3
v 4.9 1.9 0.3
v 5 1.9 0.3
v -3.9 1.9 0.2
v -3.8 1.9 0.2
v -3.5 1.9 0.2
v 4.3 1.9 0.2
v 4.9 1.9 0.2
v -4.1 1.9 0.1
v -3.9 1.9 0.1
v -3.5 1.9 0.1
v 4.9 1.9 0.1
v -4.1 1.9 -0.1
v -3.9 1.9 -0.1
v -3.5 1.9 -0.1
v 4.9 1.9 -0.1
v -3.9 1.9 -0.2
v -3.8 1.9 -0.2
v -3.5 1.9 -0.2
v 4.9 1.9 -0.2
v -3.8 1.9 -0.3
v -3.7 1.9 -0.3
v -3.5 1.9 -0.3
v -3.4 1.9 -0.3
v -3.7 1.9 -0.4
v -3.4 1.9 -0.4
v -3.9 2 0.1
v -3.5 2 0.1
v 4.9 2 0.1
v 4.3 2 0
v 4.9 2 0
v -3.9 2 -0.1
v -3.5 2 -0.1
v 4.3 2 -0.1
v 4.3 2.1 0
v 4.4 2.1 0
v 4.3 2.1 -0.1
v 4.4 2.1 -0.1
v 4.4 2.2 0
v 4.5 2.2 0
v 4.4 2.2 -0.1
v 4.5 2.2 -0.1
v 4.5 2.3 0
v 4.6 2.3 0
v 4.5 2.3 -0.1
v 4.6 2.3 -0.1
v 4.6 2.4 0
v 5.2 2.4 0
v 4.6 2.4 -0.1
v 5.2 2.4 -0.1

# faces
f 3/1/1 2/1/1 1/1/1
f 4/1/1 2/1/1 3/1/1
f 8/1/1 6/1/1 5/1/1
f 9/1/1 6/1/1 8/1/1
f 11/1/1 8/1/1 7/1/1
f 12/1/1 8/1/1 11/1/1
f 13/1/1 10/1/1 9/1/1
f 14/1/1 10/1/1 13/1/1
f 15/1/1 13/1/1 12/1/1
f 16/1/1 13/1/1 15/1/1
f 21/1/1 18/1/1 17/1/1
f 22/1/1 18/1/1 21/1/1
f 23/1/1 20/1/1 19/1/1
f 24/1/1 20/1/1 23/1/1
f 29/1/1 26/1/1 25/1/1
f 30/1/1 26/1/1 29/1/1
f 31/1/1 28/1/1 27/1/1
f 32/1/1 28/1/1 31/1/1
f 35/3/1 34/3/1 33/3/1
f 36/3/1 34/3/1 35/3/1
f 41/3/1 38/3/1 37/3/1
f 42/3/1 38/3/1 41/3/1
f 43/3/1 40/3/1 39/3/1
f 44/3/1 40/3/1 43/3/1
f 47/4/1 46/4/1 45/4/1
f 48/4/1 46/4/1 47/4/1
f 51/4/1 50/4/1 49/4/1
f 52/4/1 50/4/1 51/4/1
f 57/4/1 54/4/1 53/4/1
f 58/4/1 54/4/1 57/4/1
f 59/4/1 56/4/1 55/4/1
f 60/4/1 56/4/1 59/4/1
f 63/3/1 62/3/1 61/3/1
f 64/3/1 62/3/1 63/3/1
f 67/3/1 66/3/1 65/3/1
f 68/3/1 66/3/1 67/3/1
f 73/3/1 70/3/1 69/3/1
f 74/3/1 70/3/1 73/3/1
f 75/3/1 72/3/1 71/3/1
f 76/3/1 72/3/1 75/3/1
f 79/4/1 78/4/1 77/4/1
f 80/4/1 78/4/1 79/4/1
f 83/4/1 82/4/1 81/4/1
f 84/4/1 82/4/1 83/4/1
f 89/4/1 86/4/1 85/4/1
f 90/4/1 86/4/1 89/4/1
f 91/4/1 88/4/1 87/4/1
f 92/4/1 88/4/1 91/4/1
f 95/3/1 94/3/1 93/3/1
f 96/3/1 94/3/1 95/3/1
f 97/1/2 98/1/2 101/1/2
f 101/1/2 98/1/2 102/1/2
f 99/1/2 100/1/2 103/1/2
f 103/1/2 100/1/2 104/1/2
f 105/1/2 106/1/2 109/1/2
f 109/1/2 106/1/2 110/1/2
f 107/1/2 108/1/2 111/1/2
f 111/1/2 108/1/2 112/1/2
f 113/3/2 114/3/2 115/3/2
f 115/3/2 114/3/2 116/3/2
f 115/2/2 116/2/2 119/2/2
f 116/2/2 117/2/2 119/2/2
f 119/2/2 117/2/2 120/2/2
f 118/2/2 119/2/2 124/2/2
f 119/2/2 120/2/2 124/2/2
f 120/2/2 121/2/2 124/2/2
f 121/3/2 122/3/2 125/3/2
f 124/2/2 121/2/2 125/2/2
f 125/3/2 122/3/2 126/3/2
f 123/3/2 124/3/2 127/3/2
f 124/2/2 125/2/2 128/2/2
f 127/3/2 124/3/2 128/3/2
f 128/2/2 125/2/2 129/2/2
f 129/2/2 125/2/2 130/2/2
f 130/2/2 125/2/2 131/2/2
f 129/2/2 130/2/2 132/2/2
f 132/2/2 130/2/2 133/2/2
f 133/2/2 130/2/2 134/2/2
f 133/4/2 134/4/2 135/4/2
f 135/4/2 134/4/2 136/4/2
f 137/4/2 138/4/2 139/4/2
f 139/4/2 138/4/2 140/4/2
f 141/4/2 142/4/2 145/4/2
f 145/4/2 142/4/2 146/4/2
f 143/4/2 144/4/2 147/4/2
f 147/4/2 144/4/2 148/4/2
f 149/3/2 150/3/2 151/3/2
f 151/3/2 150/3/2 152/3/2
f 153/3/2 154/3/2 155/3/2
f 155/3/2 154/3/2 156/3/2
f 157/3/2 158/3/2 161/3/2
f 161/3/2 158/3/2 162/3/2
f 159/3/2 160/3/2 163/3/2
f 163/3/2 160/3/2 164/3/2
f 165/4/2 166/4/2 167/4/2
f 167/4/2 166/4/2 168/4/2
f 169/4/2 170/4/2 171/4/2
f 171/4/2 170/4/2 172/4/2
f 173/4/2 174/4/2 177/4/2
f 177/4/2 174/4/2 178/4/2
f 175/4/2 176/4/2 179/4/2
f 179/4/2 176/4/2 180/4/2
f 181/3/2 182/3/2 183/3/2
f 183/3/2 182/3/2 184/3/2
f 187/4/3 186/4/3 185/4/3
f 188/4/3 186/4/3 187/4/3
f 191/3/3 190/3/3 189/3/3
f 192/3/3 190/3/3 191/3/3
f 195/1/3 194/1/3 193/1/3
f 196/1/3 194/1/3 195/1/3
f 199/4/3 198/4/3 197/4/3
f 200/4/3 198/4/3 199/4/3
f 203/1/3 202/1/3 201/1/3
f 204/1/3 202/1/3 203/1/3
f 207/3/3 206/3/3 205/3/3
f 208/3/3 206/3/3 207/3/3
f 211/1/3 210/1/3 209/1/3
f 212/1/3 210/1/3 211/1/3
f 215/2/3 214/2/3 213/2/3
f 216/2/3 214/2/3 215/2/3
f 217/2/3 215/2/3 213/2/3
f 218/2/3 215/2/3 217/2/3
f 222/1/3 220/1/3 219/1/3
f 223/1/3 220/1/3 222/1/3
f 225/1/3 222/1/3 221/1/3
f 226/1/3 222/1/3 225/1/3
f 227/1/3 224/1/3 223/1/3
f 228/1/3 224/1/3 227/1/3
f 230/2/3 226/2/3 225/2/3
f 232/3/3 230/3/3 229/3/3
f 234/4/3 232/4/3 231/4/3
f 236/3/3 234/3/3 233/3/3
f 237/3/3 230/3/3 232/3/3
f 237/4/3 232/4/3 234/4/3
f 238/2/3 226/2/3 230/2/3
f 238/3/3 230/3/3 237/3/3
f 239/2/3 226/2/3 238/2/3
f 240/2/3 228/2/3 227/2/3
f 241/2/3 228/2/3 240/2/3
f 242/4/3 237/4/3 234/4/3
f 242/3/3 234/3/3 236/3/3
f 243/4/3 237/4/3 242/4/3
f 244/4/3 236/4/3 235/4/3
f 244/3/3 242/3/3 236/3/3
f 245/3/3 242/3/3 244/3/3
f 246/4/3 244/4/3 235/4/3
f 247/4/3 244/4/3 246/4/3
f 250/4/3 249/4/3 248/4/3
f 252/3/3 251/3/3 250/3/3
f 254/4/3 253/4/3 252/4/3
f 256/4/3 250/4/3 248/4/3
f 257/3/3 252/3/3 250/3/3
f 257/4/3 250/4/3 256/4/3
f 258/3/3 252/3/3 257/3/3
f 259/4/3 254/4/3 252/4/3
f 259/3/3 252/3/3 258/3/3
f 260/4/3 254/4/3 259/4/3
f 261/3/3 255/3/3 254/3/3
f 261/4/3 254/4/3 260/4/3
f 262/3/3 255/3/3 261/3/3
f 263/3/3 255/3/3 262/3/3
f 266/1/3 265/1/3 264/1/3
f 267/1/3 265/1/3 266/1/3
f 270/4/3 269/4/3 268/4/3
f 271/4/3 269/4/3 270/4/3
f 274/3/3 273/3/3 272/3/3
f 275/3/3 273/3/3 274/3/3
f 278/4/3 277/4/3 276/4/3
f 279/4/3 277/4/3 278/4/3
f 280/4/4 281/4/4 282/4/4
f 282/4/4 281/4/4 283/4/4
f 284/3/4 285/3/4 286/3/4
f 286/3/4 285/3/4 287/3/4
f 288/1/4 289/1/4 290/1/4
f 290/1/4 289/1/4 291/1/4
f 292/4/4 293/4/4 294/4/4
f 294/4/4 293/4/4 295/4/4
f 296/3/4 297/3/4 299/3/4
f 298/4/4 299/4/4 301/4/4
f 300/3/4 301/3/4 303/3/4
f 299/3/4 297/3/4 304/3/4
f 301/4/4 299/4/4 304/4/4
f 304/3/4 297/3/4 305/3/4
f 303/3/4 301/3/4 306/3/4
f 301/4/4 304/4/4 306/4/4
f 306/4/4 304/4/4 307/4/4
f 302/4/4 303/4/4 308/4/4
f 303/3/4 306/3/4 308/3/4
f 308/3/4 306/3/4 309/3/4
f 302/4/4 308/4/4 310/4/4
f 310/4/4 308/4/4 311/4/4
f 312/1/4 313/1/4 315/1/4
f 315/1/4 313/1/4 316/1/4
f 314/1/4 315/1/4 318/1/4
f 318/1/4 315/1/4 319/1/4
f 316/1/4 317/1/4 320/1/4
f 320/1/4 317/1/4 321/1/4
f 320/2/4 321/2/4 322/2/4
f 322/4/4 323/4/4 324/4/4
f 324/3/4 325/3/4 326/3/4
f 326/4/4 327/4/4 328/4/4
f 318/2/4 319/2/4 330/2/4
f 330/2/4 319/2/4 331/2/4
f 320/2/4 322/2/4 332/2/4
f 322/4/4 324/4/4 333/4/4
f 332/2/4 322/2/4 333/2/4
f 324/3/4 326/3/4 334/3/4
f 333/4/4 324/4/4 334/4/4
f 334/3/4 326/3/4 335/3/4
f 326/4/4 328/4/4 336/4/4
f 335/3/4 326/3/4 336/3/4
f 336/4/4 328/4/4 337/4/4
f 328/3/4 329/3/4 338/3/4
f 337/4/4 328/4/4 338/4/4
f 338/3/4 329/3/4 339/3/4
f 339/3/4 329/3/4 340/3/4
f 341/1/4 342/1/4 343/1/4
f 343/1/4 342/1/4 344/1/4
f 345/2/4 346/2/4 347/2/4
f 347/2/4 346/2/4 348/2/4
f 348/2/4 346/2/4 349/2/4
f 349/2/4 346/2/4 350/2/4
f 351/1/4 352/1/4 353/1/4
f 353/1/4 352/1/4 354/1/4
f 355/3/4 356/3/4 357/3/4
f 357/3/4 356/3/4 358/3/4
f 359/1/4 360/1/4 361/1/4
f 361/1/4 360/1/4 362/1/4
f 363/4/4 364/4/4 365/4/4
f 365/4/4 364/4/4 366/4/4
f 367/3/4 368/3/4 369/3/4
f 369/3/4 368/3/4 370/3/4
f 371/4/4 372/4/4 373/4/4
f 373/4/4 372/4/4 374/4/4
f 377/4/5 376/4/5 375/4/5
f 378/4/5 376/4/5 377/4/5
f 381/3/5 380/3/5 379/3/5
f 382/3/5 380/3/5 381/3/5
f 385/4/5 384/4/5 383/4/5
f 386/4/5 384/4/5 385/4/5
f 389/3/5 388/3/5 387/3/5
f 390/3/5 388/3/5 389/3/5
f 394/2/5 393/2/5 392/2/5
f 396/1/5 392/1/5 391/1/5
f 397/2/5 395/2/5 394/2/5
f 397/1/5 392/1/5 396/1/5
f 397/2/5 394/2/5 392/2/5
f 398/2/5 395/2/5 397/2/5
f 402/1/5 400/1/5 399/1/5
f 403/1/5 400/1/5 402/1/5
f 404/1/5 400/1/5 403/1/5
f 406/1/5 402/1/5 401/1/5
f 406/1/5 403/1/5 402/1/5
f 407/1/5 403/1/5 406/1/5
f 410/1/5 407/1/5 406/1/5
f 410/1/5 406/1/5 405/1/5
f 411/2/5 408/2/5 407/2/5
f 411/1/5 407/1/5 410/1/5
f 412/2/5 408/2/5 411/2/5
f 413/1/5 410/1/5 409/1/5
f 414/1/5 410/1/5 413/1/5
f 417/1/5 415/1/5 414/1/5
f 418/1/5 415/1/5 417/1/5
f 419/2/5 416/2/5 415/2/5
f 419/1/5 415/1/5 418/1/5
f 420/2/5 416/2/5 419/2/5
f 421/2/5 416/2/5 420/2/5
f 422/1/5 419/1/5 418/1/5
f 423/1/5 419/1/5 422/1/5
f 424/1/5 419/1/5 423/1/5
f 426/3/5 421/3/5 420/3/5
f 427/3/5 421/3/5 426/3/5
f 428/3/5 421/3/5 427/3/5
f 430/1/5 425/1/5 424/1/5
f 430/1/5 424/1/5 423/1/5
f 431/1/5 425/1/5 430/1/5
f 432/4/5 428/4/5 427/4/5
f 432/4/5 429/4/5 428/4/5
f 433/4/5 429/4/5 432/4/5
f 434/4/5 429/4/5 433/4/5
f 436/3/5 435/3/5 434/3/5
f 436/3/5 434/3/5 433/3/5
f 437/3/5 435/3/5 436/3/5
f 438/3/5 435/3/5 437/3/5
f 440/4/5 439/4/5 438/4/5
f 440/4/5 438/4/5 437/4/5
f 441/4/5 439/4/5 440/4/5
f 445/4/5 443/4/5 442/4/5
f 446/4/5 443/4/5 445/4/5
f 447/4/5 443/4/5 446/4/5
f 449/3/5 445/3/5 444/3/5
f 449/3/5 446/3/5 445/3/5
f 450/3/5 446/3/5 449/3/5
f 451/3/5 446/3/5 450/3/5
f 453/4/5 449/4/5 448/4/5
f 453/4/5 450/4/5 449/4/5
f 454/4/5 450/4/5 453/4/5
f 455/4/5 450/4/5 454/4/5
f 456/3/5 453/3/5 452/3/5
f 456/3/5 454/3/5 453/3/5
f 457/3/5 454/3/5 456/3/5
f 460/3/5 459/3/5 458/3/5
f 461/3/5 459/3/5 460/3/5
f 464/4/5 463/4/5 462/4/5
f 465/4/5 463/4/5 464/4/5
f 468/3/5 467/3/5 466/3/5
f 469/3/5 467/3/5 468/3/5
f 470/4/6 471/4/6 472/4/6
f 472/4/6 471/4/6 473/4/6
f 474/3/6 475/3/6 476/3/6
f 476/3/6 475/3/6 477/3/6
f 478/4/6 479/4/6 480/4/6
f 480/4/6 479/4/6 481/4/6
f 482/3/6 483/3/6 484/3/6
f 484/3/6 483/3/6 485/3/6
f 485/3/6 483/3/6 486/3/6
f 486/4/6 487/4/6 488/4/6
f 485/4/6 486/4/6 488/4/6
f 488/4/6 487/4/6 489/4/6
f 489/4/6 487/4/6 490/4/6
f 490/3/6 491/3/6 492/3/6
f 489/3/6 490/3/6 492/3/6
f 492/3/6 491/3/6 493/3/6
f 493/3/6 491/3/6 494/3/6
f 494/4/6 495/4/6 496/4/6
f 493/4/6 494/4/6 496/4/6
f 496/4/6 495/4/6 497/4/6
f 498/4/6 499/4/6 501/4/6
f 501/4/6 499/4/6 502/4/6
f 502/4/6 499/4/6 503/4/6
f 500/3/6 501/3/6 507/3/6
f 501/3/6 502/3/6 507/3/6
f 507/3/6 502/3/6 508/3/6
f 508/3/6 502/3/6 509/3/6
f 504/1/6 505/1/6 511/1/6
f 511/1/6 505/1/6 512/1/6
f 512/1/6 505/1/6 513/1/6
f 506/4/6 507/4/6 515/4/6
f 507/4/6 508/4/6 515/4/6
f 515/4/6 508/4/6 516/4/6
f 516/4/6 508/4/6 517/4/6
f 511/1/6 512/1/6 519/1/6
f 510/1/6 511/1/6 519/1/6
f 519/1/6 512/1/6 520/1/6
f 515/3/6 516/3/6 521/3/6
f 514/3/6 515/3/6 521/3/6
f 521/3/6 516/3/6 522/3/6
f 519/1/6 520/1/6 524/1/6
f 518/1/6 519/1/6 524/1/6
f 521/2/6 522/2/6 525/2/6
f 520/2/6 521/2/6 525/2/6
f 524/1/6 520/1/6 525/1/6
f 525/2/6 522/2/6 526/2/6
f 523/1/6 524/1/6 527/1/6
f 527/1/6 524/1/6 528/1/6
f 528/1/6 529/1/6 531/1/6
f 531/1/6 529/1/6 532/1/6
f 529/2/6 530/2/6 533/2/6
f 532/1/6 529/1/6 533/1/6
f 533/2/6 530/2/6 534/2/6
f 532/1/6 533/1/6 535/1/6
f 535/1/6 533/1/6 536/1/6
f 536/1/6 533/1/6 537/1/6
f 537/1/6 538/1/6 539/1/6
f 536/1/6 537/1/6 539/1/6
f 539/1/6 538/1/6 540/1/6
f 542/2/6 543/2/6 544/2/6
f 544/2/6 543/2/6 545/2/6
f 541/1/6 542/1/6 546/1/6
f 542/2/6 544/2/6 547/2/6
f 546/1/6 542/1/6 547/1/6
f 547/2/6 544/2/6 548/2/6
f 549/4/6 550/4/6 551/4/6
f 551/4/6 550/4/6 552/4/6
f 553/3/6 554/3/6 555/3/6
f 555/3/6 554/3/6 556/3/6
f 557/4/6 558/4/6 559/4/6
f 559/4/6 558/4/6 560/4/6
f 561/3/6 562/3/6 563/3/6
f 563/3/6 562/3/6 564/3/6
